<?xml version="1.0" standalone="no"?>
<!DOCTYPE svg PUBLIC "-//W3C//DTD SVG 20010904//EN"
 "http://www.w3.org/TR/2001/REC-SVG-20010904/DTD/svg10.dtd">
<svg version="1.0" xmlns="http://www.w3.org/2000/svg"
 width="300.000000pt" height="300.000000pt" viewBox="0 0 300.000000 300.000000"
 preserveAspectRatio="xMidYMid meet">

<g transform="translate(0.000000,300.000000) scale(0.100000,-0.100000)"
fill="#fff" stroke="none">
<path d="M88 2589 l-28 -21 0 -837 0 -838 21 -19 c20 -18 57 -19 1203 -22 649
-1 1282 0 1404 4 l224 6 19 32 c18 30 19 61 19 848 l0 817 -33 25 -34 26
-1384 0 c-1380 -1 -1384 -1 -1411 -21z m2752 -849 l0 -760 -1340 0 -1340 0 0
760 0 760 1340 0 1340 0 0 -760z"/>
<path d="M1296 2224 c-45 -34 -66 -37 -66 -8 0 12 -23 14 -142 12 l-143 -3 0
-135 0 -135 143 -3 142 -3 0 81 c0 45 4 89 9 98 5 10 34 35 65 57 30 22 56 45
56 52 0 25 -19 21 -64 -13z m-106 -52 c0 -21 -10 -37 -39 -60 -22 -18 -44 -32
-49 -32 -4 0 -16 16 -25 35 -15 32 -35 44 -50 29 -7 -7 49 -124 59 -124 3 0
23 13 43 28 62 49 61 49 61 -12 l0 -56 -100 0 -100 0 0 110 0 110 100 0 100 0
0 -28z"/>
<path d="M1470 2165 c0 -13 39 -15 290 -15 251 0 290 2 290 15 0 13 -39 15
-290 15 -251 0 -290 -2 -290 -15z"/>
<path d="M1470 2015 c0 -13 39 -15 290 -15 251 0 290 2 290 15 0 13 -39 15
-290 15 -251 0 -290 -2 -290 -15z"/>
<path d="M1291 1825 c-43 -34 -61 -37 -61 -9 0 12 -23 14 -142 12 l-143 -3 0
-135 0 -135 143 -3 142 -3 0 85 c0 94 2 97 83 161 45 36 61 65 35 65 -7 0 -33
-16 -57 -35z m-101 -53 c0 -21 -10 -36 -42 -60 -23 -18 -45 -32 -49 -32 -3 0
-12 13 -19 30 -16 38 -37 57 -51 43 -11 -11 33 -111 54 -125 6 -4 30 9 53 28
23 19 45 34 48 34 3 0 6 -25 6 -55 l0 -55 -100 0 -100 0 0 110 0 110 100 0
100 0 0 -28z"/>
<path d="M1472 1768 c4 -10 73 -14 291 -16 251 -2 287 0 287 13 0 13 -38 15
-291 15 -228 0 -290 -3 -287 -12z"/>
<path d="M1470 1615 c0 -13 39 -15 290 -15 251 0 290 2 290 15 0 13 -39 15
-290 15 -251 0 -290 -2 -290 -15z"/>
<path d="M951 1426 c-8 -9 -11 -55 -9 -142 l3 -129 143 -3 143 -3 -3 143 -3
143 -131 3 c-103 2 -134 0 -143 -12z m239 -131 l0 -105 -100 0 -100 0 0 105 0
105 100 0 100 0 0 -105z"/>
<path d="M1475 1380 c-16 -27 16 -30 291 -30 267 0 285 1 282 18 -3 16 -26 17
-285 20 -183 1 -284 -1 -288 -8z"/>
<path d="M1475 1230 c-16 -27 16 -30 291 -30 267 0 285 1 282 18 -3 16 -26 17
-285 20 -183 1 -284 -1 -288 -8z"/>
<path d="M1216 778 c-3 -13 -11 -72 -19 -132 l-15 -108 -58 -59 c-32 -32 -54
-62 -50 -66 10 -10 842 -10 852 -1 4 5 -20 36 -53 70 l-60 63 -12 95 c-7 52
-15 110 -18 128 l-5 32 -279 0 -279 0 -4 -22z"/>
</g>
</svg>
