<?xml version="1.0" standalone="no"?>
<!DOCTYPE svg PUBLIC "-//W3C//DTD SVG 20010904//EN"
 "http://www.w3.org/TR/2001/REC-SVG-20010904/DTD/svg10.dtd">
<svg version="1.0" xmlns="http://www.w3.org/2000/svg"
 width="300.000000pt" height="300.000000pt" viewBox="0 0 300.000000 300.000000"
 preserveAspectRatio="xMidYMid meet">

<g transform="translate(0.000000,300.000000) scale(0.100000,-0.100000)"
fill="#fff" stroke="none">
<path d="M383 2793 l-23 -15 0 -669 c0 -650 1 -669 19 -679 13 -7 384 -10
1130 -10 l1110 0 15 22 c14 20 16 100 16 673 l0 652 -23 21 -23 22 -1100 -1
c-982 0 -1101 -2 -1121 -16z m2177 -673 l0 -610 -1060 0 -1060 0 0 610 0 610
1060 0 1060 0 0 -610z"/>
<path d="M1340 2499 c-42 -34 -46 -35 -53 -9 -5 19 -12 21 -114 18 l-108 -3
-3 -107 -3 -108 33 -1 c58 -1 173 -1 186 0 8 1 12 22 12 69 l0 67 52 46 c56
50 55 75 -2 28z m-80 -40 c0 -20 -25 -48 -62 -70 -15 -8 -21 -4 -35 26 -17 36
-33 46 -33 20 0 -23 33 -85 45 -85 6 0 26 11 45 25 19 14 35 25 37 25 2 0 3
-20 3 -45 l0 -45 -85 0 -85 0 0 78 c0 43 3 82 7 85 3 4 42 7 85 7 72 0 78 -1
78 -21z"/>
<path d="M1485 2460 c-4 -7 73 -10 224 -10 147 0 231 4 231 10 0 6 -81 10
-224 10 -139 0 -227 -4 -231 -10z"/>
<path d="M1480 2340 c0 -12 -27 -10 207 -17 200 -5 253 -2 253 17 0 6 -86 10
-230 10 -147 0 -230 -4 -230 -10z"/>
<path d="M1337 2185 c-32 -29 -47 -32 -47 -10 0 13 -17 15 -112 13 l-113 -3 0
-105 0 -105 113 -3 112 -3 0 74 0 73 50 38 c28 21 50 42 50 47 0 16 -25 9 -53
-16z m-77 -39 c0 -15 -12 -33 -34 -50 -19 -14 -37 -26 -40 -26 -3 0 -12 14
-21 30 -16 32 -35 40 -35 15 0 -22 32 -85 43 -85 6 0 25 11 43 25 18 14 35 25
39 25 3 0 5 -19 3 -42 l-3 -43 -80 0 -80 0 -3 74 c-2 41 -1 80 2 88 4 9 28 13
86 13 78 0 80 -1 80 -24z"/>
<path d="M1480 2140 c0 -6 83 -10 230 -10 147 0 230 4 230 10 0 6 -83 10 -230
10 -147 0 -230 -4 -230 -10z"/>
<path d="M1480 2020 c0 -6 83 -10 230 -10 147 0 230 4 230 10 0 6 -83 10 -230
10 -147 0 -230 -4 -230 -10z"/>
<path d="M1062 1763 l3 -108 113 -3 112 -3 0 111 0 110 -115 0 -116 0 3 -107z
m198 2 l0 -86 -82 3 -83 3 -3 69 c-2 38 -1 75 2 83 4 9 28 13 86 13 l80 0 0
-85z"/>
<path d="M1487 1833 c-20 -20 13 -23 223 -23 198 0 230 2 230 15 0 13 -31 15
-223 15 -123 0 -227 -3 -230 -7z"/>
<path d="M1485 1710 c-11 -18 18 -20 234 -18 161 2 215 6 219 16 5 15 -443 18
-453 2z"/>
<path d="M1276 1358 c-2 -7 -9 -53 -15 -102 -10 -88 -12 -91 -56 -136 -25 -25
-42 -49 -39 -53 9 -9 658 -9 667 -1 4 4 -13 28 -37 55 -39 43 -45 56 -55 124
-6 42 -11 87 -11 100 l0 25 -225 0 c-172 0 -226 -3 -229 -12z"/>
<path d="M144 837 c-9 -25 1 -392 11 -392 6 0 11 30 13 66 l3 66 62 5 c80 7
120 27 142 74 35 75 -3 161 -81 183 -55 15 -143 14 -150 -2z m173 -42 c34 -24
47 -76 29 -118 -19 -46 -41 -57 -115 -57 l-61 0 0 95 0 95 63 0 c39 0 70 -6
84 -15z"/>
<path d="M2633 837 c-21 -26 -164 -378 -158 -387 10 -16 25 -1 45 46 l19 44
105 0 105 0 19 -44 c21 -46 37 -62 46 -47 7 10 -150 387 -164 396 -4 3 -12 -1
-17 -8z m63 -164 c20 -51 35 -95 32 -98 -3 -3 -44 -5 -90 -3 l-85 3 45 108
c29 69 48 104 53 95 4 -7 24 -55 45 -105z"/>
<path d="M2889 824 c-9 -11 -9 -18 -1 -26 14 -14 42 -3 42 16 0 20 -27 27 -41
10z"/>
<path d="M465 718 c-3 -8 -4 -71 -3 -141 4 -156 22 -177 26 -30 3 96 4 103 29
123 16 12 41 20 64 20 45 0 60 16 26 29 -31 12 -66 4 -94 -22 l-23 -20 0 21
c0 25 -18 39 -25 20z"/>
<path d="M773 719 c-18 -5 -43 -24 -57 -42 -74 -97 -13 -230 106 -230 46 0 98
21 98 39 0 17 0 17 -45 -2 -24 -9 -51 -13 -70 -10 -40 8 -85 48 -85 75 0 19 7
21 113 23 l112 3 -3 35 c-7 82 -86 133 -169 109z m112 -49 c13 -12 25 -32 28
-46 l4 -24 -98 0 c-83 0 -99 3 -99 16 0 72 109 107 165 54z"/>
<path d="M1115 715 c-46 -16 -82 -57 -90 -100 -3 -16 -5 -87 -3 -158 3 -143
21 -175 26 -46 2 44 6 79 10 77 82 -43 102 -49 144 -38 87 24 127 109 90 194
-30 68 -104 97 -177 71z m121 -46 c36 -34 48 -80 31 -121 -22 -51 -52 -73
-103 -73 -36 0 -49 6 -75 32 -76 75 -15 202 90 188 19 -2 44 -14 57 -26z"/>
<path d="M1475 715 c-73 -26 -109 -99 -86 -176 25 -83 125 -118 205 -71 34 20
36 20 36 3 0 -19 23 -35 34 -24 3 4 6 40 6 82 0 55 -5 86 -21 118 -32 66 -102
94 -174 68z m128 -55 c56 -62 22 -171 -58 -186 -46 -8 -99 19 -119 61 -20 41
-20 59 0 100 33 69 125 83 177 25z"/>
<path d="M1762 718 c-12 -12 -17 -232 -6 -262 3 -8 12 -12 20 -9 11 4 14 28
14 104 0 88 2 100 22 119 14 13 35 20 59 20 21 0 41 5 44 11 20 32 -67 30
-101 -2 -24 -22 -24 -22 -24 -1 0 26 -13 35 -28 20z"/>
<path d="M2075 715 c-136 -49 -118 -244 25 -270 26 -4 47 0 81 17 45 23 46 23
55 5 17 -38 29 -16 32 59 2 60 -1 85 -17 118 -33 68 -104 97 -176 71z m128
-55 c56 -62 22 -171 -58 -186 -46 -8 -99 19 -119 61 -20 41 -20 59 0 100 33
69 125 83 177 25z"/>
<path d="M2895 719 c-10 -26 -1 -269 10 -272 14 -3 19 263 6 276 -7 7 -12 5
-16 -4z"/>
</g>
</svg>
